<svg width="185" height="44" viewBox="0 0 185 44" fill="none" xmlns="http://www.w3.org/2000/svg">
<rect width="185" height="44" rx="20" fill="url(#paint0_linear_125_581)"/>
<path d="M32 26L27 21L28.4 19.55L31 22.15V14H33V22.15L35.6 19.55L37 21L32 26ZM26 30C25.45 30 24.979 29.804 24.587 29.412C24.195 29.02 23.9993 28.5493 24 28V25H26V28H38V25H40V28C40 28.55 39.804 29.021 39.412 29.413C39.02 29.805 38.5493 30.0007 38 30H26Z" fill="#F2F7FC"/>
<path d="M54.96 26V17.48H57.984C58.904 17.48 59.672 17.672 60.288 18.056C60.904 18.432 61.364 18.944 61.668 19.592C61.98 20.232 62.136 20.944 62.136 21.728C62.136 22.592 61.964 23.344 61.62 23.984C61.284 24.624 60.804 25.12 60.18 25.472C59.556 25.824 58.824 26 57.984 26H54.96ZM60.768 21.728C60.768 21.128 60.656 20.6 60.432 20.144C60.216 19.68 59.9 19.32 59.484 19.064C59.076 18.8 58.576 18.668 57.984 18.668H56.304V24.812H57.984C58.584 24.812 59.088 24.676 59.496 24.404C59.912 24.132 60.228 23.764 60.444 23.3C60.66 22.836 60.768 22.312 60.768 21.728ZM66.2018 26.12C65.7058 26.12 65.2618 26.036 64.8698 25.868C64.4778 25.692 64.1378 25.452 63.8498 25.148C63.5698 24.844 63.3538 24.5 63.2018 24.116C63.0498 23.724 62.9738 23.308 62.9738 22.868C62.9738 22.428 63.0498 22.012 63.2018 21.62C63.3538 21.228 63.5698 20.884 63.8498 20.588C64.1378 20.284 64.4778 20.048 64.8698 19.88C65.2698 19.704 65.7138 19.616 66.2018 19.616C66.6898 19.616 67.1298 19.704 67.5218 19.88C67.9218 20.048 68.2618 20.284 68.5418 20.588C68.8298 20.884 69.0498 21.228 69.2018 21.62C69.3538 22.012 69.4298 22.428 69.4298 22.868C69.4298 23.308 69.3538 23.724 69.2018 24.116C69.0498 24.5 68.8298 24.844 68.5418 25.148C68.2618 25.452 67.9218 25.692 67.5218 25.868C67.1298 26.036 66.6898 26.12 66.2018 26.12ZM64.3298 22.88C64.3298 23.28 64.4138 23.64 64.5818 23.96C64.7498 24.28 64.9738 24.532 65.2538 24.716C65.5338 24.9 65.8498 24.992 66.2018 24.992C66.5458 24.992 66.8578 24.9 67.1378 24.716C67.4258 24.524 67.6538 24.268 67.8218 23.948C67.9898 23.62 68.0738 23.26 68.0738 22.868C68.0738 22.468 67.9898 22.108 67.8218 21.788C67.6538 21.468 67.4258 21.216 67.1378 21.032C66.8578 20.84 66.5458 20.744 66.2018 20.744C65.8498 20.744 65.5338 20.84 65.2538 21.032C64.9738 21.224 64.7498 21.48 64.5818 21.8C64.4138 22.112 64.3298 22.472 64.3298 22.88ZM78.2137 19.724H79.4737L76.8337 26H75.7057L74.5777 23.168L73.4497 26H72.3217L69.6697 19.724H70.9297L72.9457 24.716L73.8337 22.4L72.7537 19.736H73.8697L74.5777 21.692L75.2737 19.736H76.3897L75.3217 22.4L76.2097 24.716L78.2137 19.724ZM85.9786 26H84.6586V22.484C84.6586 21.9 84.5626 21.472 84.3706 21.2C84.1866 20.928 83.9106 20.792 83.5426 20.792C83.2866 20.792 83.0306 20.856 82.7746 20.984C82.5266 21.112 82.3026 21.288 82.1026 21.512C81.9026 21.728 81.7586 21.98 81.6706 22.268V26H80.3506V19.724H81.5506V20.984C81.7106 20.704 81.9186 20.464 82.1746 20.264C82.4386 20.056 82.7346 19.896 83.0626 19.784C83.3906 19.672 83.7386 19.616 84.1066 19.616C84.4826 19.616 84.7906 19.684 85.0306 19.82C85.2786 19.956 85.4706 20.144 85.6066 20.384C85.7506 20.616 85.8466 20.888 85.8946 21.2C85.9506 21.504 85.9786 21.828 85.9786 22.172V26ZM87.5228 17.24H88.8428V24.188C88.8428 24.508 88.8908 24.712 88.9868 24.8C89.0828 24.888 89.2028 24.932 89.3468 24.932C89.5068 24.932 89.6548 24.916 89.7908 24.884C89.9348 24.852 90.0588 24.812 90.1628 24.764L90.3548 25.808C90.1628 25.888 89.9348 25.956 89.6708 26.012C89.4068 26.068 89.1708 26.096 88.9628 26.096C88.5148 26.096 88.1628 25.972 87.9068 25.724C87.6508 25.468 87.5228 25.116 87.5228 24.668V17.24ZM93.9401 26.12C93.4441 26.12 93.0001 26.036 92.6081 25.868C92.2161 25.692 91.8761 25.452 91.5881 25.148C91.3081 24.844 91.0921 24.5 90.9401 24.116C90.7881 23.724 90.7121 23.308 90.7121 22.868C90.7121 22.428 90.7881 22.012 90.9401 21.62C91.0921 21.228 91.3081 20.884 91.5881 20.588C91.8761 20.284 92.2161 20.048 92.6081 19.88C93.0081 19.704 93.4521 19.616 93.9401 19.616C94.4281 19.616 94.8681 19.704 95.2601 19.88C95.6601 20.048 96.0001 20.284 96.2801 20.588C96.5681 20.884 96.7881 21.228 96.9401 21.62C97.0921 22.012 97.1681 22.428 97.1681 22.868C97.1681 23.308 97.0921 23.724 96.9401 24.116C96.7881 24.5 96.5681 24.844 96.2801 25.148C96.0001 25.452 95.6601 25.692 95.2601 25.868C94.8681 26.036 94.4281 26.12 93.9401 26.12ZM92.0681 22.88C92.0681 23.28 92.1521 23.64 92.3201 23.96C92.4881 24.28 92.7121 24.532 92.9921 24.716C93.2721 24.9 93.5881 24.992 93.9401 24.992C94.2841 24.992 94.5961 24.9 94.8761 24.716C95.1641 24.524 95.3921 24.268 95.5601 23.948C95.7281 23.62 95.8121 23.26 95.8121 22.868C95.8121 22.468 95.7281 22.108 95.5601 21.788C95.3921 21.468 95.1641 21.216 94.8761 21.032C94.5961 20.84 94.2841 20.744 93.9401 20.744C93.5881 20.744 93.2721 20.84 92.9921 21.032C92.7121 21.224 92.4881 21.48 92.3201 21.8C92.1521 22.112 92.0681 22.472 92.0681 22.88ZM97.8829 24.164C97.8829 23.764 97.9949 23.416 98.2189 23.12C98.4509 22.816 98.7669 22.584 99.1669 22.424C99.5669 22.256 100.031 22.172 100.559 22.172C100.839 22.172 101.123 22.192 101.411 22.232C101.707 22.272 101.967 22.336 102.191 22.424V22.028C102.191 21.588 102.059 21.244 101.795 20.996C101.531 20.748 101.151 20.624 100.655 20.624C100.303 20.624 99.9709 20.688 99.6589 20.816C99.3469 20.936 99.0149 21.108 98.6629 21.332L98.2189 20.444C98.6349 20.164 99.0509 19.956 99.4669 19.82C99.8909 19.684 100.335 19.616 100.799 19.616C101.639 19.616 102.299 19.84 102.779 20.288C103.267 20.728 103.511 21.356 103.511 22.172V24.512C103.511 24.664 103.535 24.772 103.583 24.836C103.639 24.9 103.731 24.936 103.859 24.944V26C103.739 26.024 103.631 26.04 103.535 26.048C103.439 26.056 103.359 26.06 103.295 26.06C103.015 26.06 102.803 25.992 102.659 25.856C102.515 25.72 102.431 25.56 102.407 25.376L102.371 25.016C102.099 25.368 101.751 25.64 101.327 25.832C100.903 26.024 100.475 26.12 100.043 26.12C99.6269 26.12 99.2549 26.036 98.9269 25.868C98.5989 25.692 98.3429 25.456 98.1589 25.16C97.9749 24.864 97.8829 24.532 97.8829 24.164ZM101.879 24.548C101.975 24.444 102.051 24.34 102.107 24.236C102.163 24.132 102.191 24.04 102.191 23.96V23.24C101.967 23.152 101.731 23.088 101.483 23.048C101.235 23 100.991 22.976 100.751 22.976C100.271 22.976 99.8789 23.072 99.5749 23.264C99.2789 23.456 99.1309 23.72 99.1309 24.056C99.1309 24.24 99.1789 24.416 99.2749 24.584C99.3789 24.752 99.5229 24.888 99.7069 24.992C99.8989 25.096 100.135 25.148 100.415 25.148C100.703 25.148 100.979 25.092 101.243 24.98C101.507 24.868 101.719 24.724 101.879 24.548ZM104.716 22.868C104.716 22.268 104.836 21.724 105.076 21.236C105.324 20.74 105.66 20.348 106.084 20.06C106.508 19.764 106.996 19.616 107.548 19.616C108.028 19.616 108.46 19.74 108.844 19.988C109.236 20.236 109.54 20.544 109.756 20.912V17.24H111.076V24.512C111.076 24.664 111.104 24.772 111.16 24.836C111.216 24.9 111.308 24.936 111.436 24.944V26C111.188 26.04 110.996 26.06 110.86 26.06C110.612 26.06 110.4 25.988 110.224 25.844C110.056 25.7 109.968 25.528 109.96 25.328L109.948 24.86C109.708 25.26 109.384 25.572 108.976 25.796C108.568 26.012 108.144 26.12 107.704 26.12C107.272 26.12 106.872 26.036 106.504 25.868C106.144 25.7 105.828 25.464 105.556 25.16C105.292 24.856 105.084 24.508 104.932 24.116C104.788 23.724 104.716 23.308 104.716 22.868ZM109.756 23.744V22.1C109.668 21.844 109.524 21.616 109.324 21.416C109.132 21.208 108.912 21.044 108.664 20.924C108.424 20.804 108.184 20.744 107.944 20.744C107.664 20.744 107.408 20.804 107.176 20.924C106.952 21.044 106.756 21.204 106.588 21.404C106.428 21.604 106.304 21.832 106.216 22.088C106.128 22.344 106.084 22.612 106.084 22.892C106.084 23.18 106.132 23.452 106.228 23.708C106.324 23.956 106.46 24.18 106.636 24.38C106.82 24.572 107.028 24.724 107.26 24.836C107.5 24.94 107.76 24.992 108.04 24.992C108.216 24.992 108.392 24.96 108.568 24.896C108.752 24.832 108.924 24.744 109.084 24.632C109.252 24.52 109.392 24.388 109.504 24.236C109.624 24.084 109.708 23.92 109.756 23.744ZM118.851 26V17.48H122.559C122.943 17.48 123.295 17.56 123.615 17.72C123.935 17.88 124.211 18.092 124.443 18.356C124.683 18.62 124.867 18.916 124.995 19.244C125.131 19.572 125.199 19.908 125.199 20.252C125.199 20.628 125.131 20.988 124.995 21.332C124.859 21.676 124.663 21.972 124.407 22.22C124.159 22.468 123.867 22.648 123.531 22.76L125.535 26H124.023L122.175 23.036H120.195V26H118.851ZM120.195 21.848H122.547C122.795 21.848 123.015 21.776 123.207 21.632C123.399 21.488 123.551 21.296 123.663 21.056C123.775 20.808 123.831 20.54 123.831 20.252C123.831 19.956 123.767 19.692 123.639 19.46C123.511 19.22 123.343 19.028 123.135 18.884C122.935 18.74 122.715 18.668 122.475 18.668H120.195V21.848ZM129.261 26.12C128.773 26.12 128.329 26.036 127.929 25.868C127.537 25.692 127.197 25.456 126.909 25.16C126.621 24.856 126.397 24.512 126.237 24.128C126.085 23.736 126.009 23.32 126.009 22.88C126.009 22.288 126.145 21.748 126.417 21.26C126.689 20.764 127.069 20.368 127.557 20.072C128.045 19.768 128.617 19.616 129.273 19.616C129.929 19.616 130.493 19.768 130.965 20.072C131.445 20.368 131.817 20.76 132.081 21.248C132.345 21.736 132.477 22.26 132.477 22.82C132.477 22.916 132.473 23.008 132.465 23.096C132.457 23.176 132.449 23.244 132.441 23.3H127.413C127.437 23.668 127.537 23.992 127.713 24.272C127.897 24.544 128.129 24.76 128.409 24.92C128.689 25.072 128.989 25.148 129.309 25.148C129.661 25.148 129.993 25.06 130.305 24.884C130.625 24.708 130.841 24.476 130.953 24.188L132.081 24.512C131.945 24.816 131.737 25.092 131.457 25.34C131.185 25.58 130.861 25.772 130.485 25.916C130.109 26.052 129.701 26.12 129.261 26.12ZM127.377 22.424H131.169C131.145 22.064 131.041 21.748 130.857 21.476C130.681 21.196 130.453 20.98 130.173 20.828C129.901 20.668 129.597 20.588 129.261 20.588C128.933 20.588 128.629 20.668 128.349 20.828C128.077 20.98 127.853 21.196 127.677 21.476C127.501 21.748 127.401 22.064 127.377 22.424ZM135.786 26.12C135.258 26.12 134.758 26.036 134.286 25.868C133.814 25.692 133.41 25.432 133.074 25.088L133.566 24.2C133.926 24.52 134.286 24.752 134.646 24.896C135.014 25.04 135.378 25.112 135.738 25.112C136.106 25.112 136.406 25.044 136.638 24.908C136.87 24.764 136.986 24.556 136.986 24.284C136.986 24.084 136.926 23.936 136.806 23.84C136.686 23.744 136.51 23.66 136.278 23.588C136.054 23.516 135.782 23.436 135.462 23.348C135.014 23.212 134.638 23.072 134.334 22.928C134.03 22.776 133.802 22.592 133.65 22.376C133.498 22.16 133.422 21.884 133.422 21.548C133.422 21.14 133.526 20.792 133.734 20.504C133.942 20.216 134.23 19.996 134.598 19.844C134.974 19.692 135.406 19.616 135.894 19.616C136.35 19.616 136.77 19.688 137.154 19.832C137.546 19.968 137.89 20.184 138.186 20.48L137.622 21.356C137.342 21.1 137.054 20.912 136.758 20.792C136.47 20.672 136.158 20.612 135.822 20.612C135.63 20.612 135.446 20.636 135.27 20.684C135.094 20.724 134.946 20.804 134.826 20.924C134.714 21.036 134.658 21.196 134.658 21.404C134.658 21.572 134.706 21.708 134.802 21.812C134.898 21.916 135.042 22.004 135.234 22.076C135.426 22.148 135.662 22.228 135.942 22.316C136.43 22.46 136.846 22.604 137.19 22.748C137.534 22.884 137.798 23.064 137.982 23.288C138.174 23.504 138.27 23.804 138.27 24.188C138.27 24.796 138.042 25.272 137.586 25.616C137.138 25.952 136.538 26.12 135.786 26.12ZM139.388 23.564V19.724H140.708V23.3C140.708 23.86 140.808 24.284 141.008 24.572C141.216 24.852 141.516 24.992 141.908 24.992C142.156 24.992 142.396 24.94 142.628 24.836C142.868 24.732 143.084 24.58 143.276 24.38C143.476 24.172 143.636 23.924 143.756 23.636V19.724H145.076V24.512C145.076 24.664 145.104 24.772 145.16 24.836C145.216 24.9 145.308 24.936 145.436 24.944V26C145.3 26.024 145.188 26.04 145.1 26.048C145.012 26.056 144.928 26.06 144.848 26.06C144.608 26.06 144.408 25.996 144.248 25.868C144.088 25.732 143.996 25.56 143.972 25.352L143.948 24.728C143.668 25.184 143.304 25.532 142.856 25.772C142.408 26.004 141.916 26.12 141.38 26.12C140.724 26.12 140.228 25.904 139.892 25.472C139.556 25.04 139.388 24.404 139.388 23.564ZM156.361 26H155.041V22.484C155.041 21.9 154.945 21.472 154.753 21.2C154.561 20.928 154.281 20.792 153.913 20.792C153.545 20.792 153.201 20.932 152.881 21.212C152.569 21.484 152.349 21.84 152.221 22.28V26H150.901V22.484C150.901 21.9 150.805 21.472 150.613 21.2C150.421 20.928 150.145 20.792 149.785 20.792C149.417 20.792 149.073 20.928 148.753 21.2C148.441 21.472 148.217 21.828 148.081 22.268V26H146.761V19.724H147.961V20.984C148.209 20.544 148.533 20.208 148.933 19.976C149.341 19.736 149.805 19.616 150.325 19.616C150.845 19.616 151.253 19.752 151.549 20.024C151.853 20.296 152.041 20.636 152.113 21.044C152.385 20.58 152.717 20.228 153.109 19.988C153.509 19.74 153.965 19.616 154.477 19.616C154.845 19.616 155.153 19.684 155.401 19.82C155.649 19.956 155.841 20.144 155.977 20.384C156.113 20.616 156.209 20.888 156.265 21.2C156.329 21.504 156.361 21.828 156.361 22.172V26ZM160.726 26.12C160.238 26.12 159.794 26.036 159.394 25.868C159.002 25.692 158.662 25.456 158.374 25.16C158.086 24.856 157.862 24.512 157.702 24.128C157.55 23.736 157.474 23.32 157.474 22.88C157.474 22.288 157.61 21.748 157.882 21.26C158.154 20.764 158.534 20.368 159.022 20.072C159.51 19.768 160.082 19.616 160.738 19.616C161.394 19.616 161.958 19.768 162.43 20.072C162.91 20.368 163.282 20.76 163.546 21.248C163.81 21.736 163.942 22.26 163.942 22.82C163.942 22.916 163.938 23.008 163.93 23.096C163.922 23.176 163.914 23.244 163.906 23.3H158.878C158.902 23.668 159.002 23.992 159.178 24.272C159.362 24.544 159.594 24.76 159.874 24.92C160.154 25.072 160.454 25.148 160.774 25.148C161.126 25.148 161.458 25.06 161.77 24.884C162.09 24.708 162.306 24.476 162.418 24.188L163.546 24.512C163.41 24.816 163.202 25.092 162.922 25.34C162.65 25.58 162.326 25.772 161.95 25.916C161.574 26.052 161.166 26.12 160.726 26.12ZM158.842 22.424H162.634C162.61 22.064 162.506 21.748 162.322 21.476C162.146 21.196 161.918 20.98 161.638 20.828C161.366 20.668 161.062 20.588 160.726 20.588C160.398 20.588 160.094 20.668 159.814 20.828C159.542 20.98 159.318 21.196 159.142 21.476C158.966 21.748 158.866 22.064 158.842 22.424Z" fill="#F2F7FC"/>
<defs>
<linearGradient id="paint0_linear_125_581" x1="13.8318" y1="11" x2="201.922" y2="31.5304" gradientUnits="userSpaceOnUse">
<stop stop-color="#FF9C1A"/>
<stop offset="1" stop-color="#E80505"/>
</linearGradient>
</defs>
</svg>
