<svg width="44" height="44" viewBox="0 0 44 44" fill="none" xmlns="http://www.w3.org/2000/svg">
<rect width="44" height="44" rx="8" transform="matrix(-1 0 0 1 44 0)" fill="#F2F7FC"/>
<rect width="24" height="21.36" rx="8.26855" transform="matrix(-1 0 0 1 34 10)" fill="#F2F7FC"/>
<path d="M12.97 16.65L22 11L31.03 16.65C31.61 17 32 17.63 32 18.36V28.36C32 29.46 31.1 30.36 30 30.36H14C12.9 30.36 12 29.46 12 28.36V18.36C12 17.63 12.39 17 12.97 16.65ZM14 28.36H30V20.36L22 25.36L14 20.36V28.36ZM22 23.36L30 18.36L22 13.36L14 18.36L22 23.36Z" fill="#FF9C1B"/>
</svg>
