<svg width="70" height="61" viewBox="0 0 70 61" fill="none" xmlns="http://www.w3.org/2000/svg">
<rect x="0.546875" width="69.455" height="60.7789" rx="8.26855" fill="#F2F7FC"/>
<path d="M35.2725 22.3262C30.7041 22.3262 27.0039 26.0263 27.0039 30.5947C27.0029 32.3304 27.5485 34.0224 28.5632 35.4305C29.5779 36.8387 31.0103 37.8916 32.6571 38.4399C33.0705 38.5119 33.226 38.2638 33.226 38.0463C33.226 37.8504 33.2152 37.1996 33.2152 36.5067C31.1382 36.8896 30.6007 36.0007 30.4354 35.5352C30.3419 35.297 29.9392 34.5636 29.5878 34.3668C29.2984 34.2122 28.885 33.8294 29.5771 33.8195C30.2286 33.8087 30.6933 34.4189 30.8488 34.667C31.593 35.9172 32.7811 35.5658 33.2566 35.3491C33.3293 34.8117 33.546 34.4503 33.7841 34.2436C31.9444 34.0369 30.0219 33.3233 30.0219 30.1606C30.0219 29.261 30.3419 28.5177 30.8695 27.938C30.7868 27.7313 30.4974 26.8838 30.9521 25.7469C30.9521 25.7469 31.6442 25.5302 33.226 26.5952C33.8991 26.4084 34.5946 26.3144 35.2931 26.3157C35.996 26.3157 36.6988 26.4084 37.3603 26.5944C38.942 25.5195 39.6341 25.7477 39.6341 25.7477C40.0889 26.8846 39.7995 27.7321 39.7168 27.9389C40.2435 28.5177 40.5643 29.2511 40.5643 30.1606C40.5643 33.3341 38.632 34.0369 36.7914 34.2436C37.0915 34.5016 37.3503 34.9977 37.3503 35.7733C37.3503 36.8788 37.3396 37.7677 37.3396 38.0472C37.3396 38.2638 37.495 38.5218 37.9085 38.4391C39.5496 37.8848 40.9757 36.8298 41.9859 35.4227C42.9962 34.0155 43.5398 32.327 43.5402 30.5947C43.5402 26.0263 39.84 22.3262 35.2716 22.3262H35.2725Z" fill="#0B0909"/>
</svg>
