<svg width="70" height="62" viewBox="0 0 70 62" fill="none" xmlns="http://www.w3.org/2000/svg">
<rect x="0.125" width="69.4558" height="61.1881" rx="8.26855" fill="#F2F7FC"/>
<rect x="24.9297" y="20.6719" width="19.8445" height="19.8453" rx="8.26855" fill="#F2F7FC"/>
<path d="M29.8895 24.8069C29.8892 25.2455 29.7148 25.666 29.4045 25.976C29.0942 26.286 28.6735 26.46 28.2349 26.4598C27.7963 26.4595 27.3758 26.2851 27.0658 25.9748C26.7558 25.6645 26.5818 25.2438 26.582 24.8052C26.5823 24.3666 26.7567 23.9461 27.067 23.6361C27.3773 23.3261 27.798 23.1521 28.2366 23.1523C28.6752 23.1526 29.0957 23.327 29.4057 23.6373C29.7157 23.9476 29.8897 24.3683 29.8895 24.8069ZM29.9391 27.6843H26.6316V38.0366H29.9391V27.6843ZM35.1648 27.6843H31.8739V38.0366H35.1317V32.6041C35.1317 29.5778 39.0758 29.2967 39.0758 32.6041V38.0366H42.3419V31.4796C42.3419 26.3779 36.5043 26.5681 35.1317 29.0735L35.1648 27.6843Z" fill="#0077B5"/>
</svg>
