<svg width="45" height="44" viewBox="0 0 45 44" fill="none" xmlns="http://www.w3.org/2000/svg">
<g opacity="0.4">
<rect width="44" height="44" rx="8" transform="matrix(-1 0 0 1 44.5 0)" fill="#F2F7FC"/>
<rect width="23.5" height="23.499" rx="8.26855" transform="matrix(-1 0 0 1 34.5 10)" fill="#F2F7FC"/>
<path d="M22.75 12C26.4766 12 29.5 14.8777 29.5 18.4219C29.5 22.5 25 28.9627 23.3477 31.1948C23.2791 31.2891 23.1892 31.3657 23.0853 31.4186C22.9814 31.4715 22.8665 31.499 22.75 31.499C22.6335 31.499 22.5186 31.4715 22.4147 31.4186C22.3108 31.3657 22.2209 31.2891 22.1523 31.1948C20.5 28.9636 16 22.5033 16 18.4219C16 14.8777 19.0234 12 22.75 12Z" stroke="#E80505" stroke-width="1.5" stroke-linecap="round" stroke-linejoin="round"/>
<path d="M22.75 21.0154C21.5332 21.0154 20.5469 20.0291 20.5469 18.8124C20.5469 17.5957 21.5332 16.6094 22.75 16.6094C23.9668 16.6094 24.9531 17.5957 24.9531 18.8124C24.9531 20.0291 23.9668 21.0154 22.75 21.0154Z" stroke="#E80505" stroke-width="1.5" stroke-linecap="round" stroke-linejoin="round"/>
</g>
</svg>
