<svg width="170" height="82" viewBox="0 0 170 82" fill="none" xmlns="http://www.w3.org/2000/svg">
<g filter="url(#filter0_d_8_912)">
<path d="M26.544 45.648C26.752 45.648 26.912 45.744 27.024 45.936C27.152 46.128 27.216 46.392 27.216 46.728C27.216 47.352 27.064 47.848 26.76 48.216C25.992 49.144 25.216 49.864 24.432 50.376C23.648 50.872 22.72 51.12 21.648 51.12C20.608 51.12 19.72 50.84 18.984 50.28C18.264 49.72 17.576 48.76 16.92 47.4C16.392 46.312 15.976 45.512 15.672 45C15.368 44.472 15.064 44.096 14.76 43.872C14.472 43.648 14.112 43.512 13.68 43.464C13.616 43.8 13.432 44.856 13.128 46.632C13 47.432 12.92 47.92 12.888 48.096C12.728 49.072 12.408 49.824 11.928 50.352C11.448 50.864 10.72 51.12 9.744 51.12C8.672 51.12 7.72 50.808 6.888 50.184C6.072 49.544 5.44 48.664 4.992 47.544C4.544 46.408 4.32 45.12 4.32 43.68C4.32 40.992 4.784 38.672 5.712 36.72C6.656 34.768 7.968 33.28 9.648 32.256C11.344 31.216 13.296 30.696 15.504 30.696C17.04 30.696 18.328 30.928 19.368 31.392C20.408 31.856 21.176 32.496 21.672 33.312C22.184 34.128 22.44 35.048 22.44 36.072C22.44 36.968 22.224 37.848 21.792 38.712C21.376 39.56 20.744 40.312 19.896 40.968C19.048 41.624 18.016 42.112 16.8 42.432C17.568 42.64 18.16 42.976 18.576 43.44C18.992 43.904 19.408 44.584 19.824 45.48C20.272 46.44 20.712 47.144 21.144 47.592C21.592 48.04 22.104 48.264 22.68 48.264C23.192 48.264 23.68 48.096 24.144 47.76C24.608 47.408 25.192 46.816 25.896 45.984C26.088 45.76 26.304 45.648 26.544 45.648ZM10.368 43.44C9.824 43.44 9.448 43.312 9.24 43.056C9.048 42.8 8.952 42.512 8.952 42.192C8.952 41.808 9.072 41.504 9.312 41.28C9.568 41.056 9.856 40.944 10.176 40.944H10.776C11.032 39.376 11.272 38.024 11.496 36.888C11.704 35.848 12.376 35.328 13.512 35.328C14.424 35.328 14.88 35.736 14.88 36.552C14.88 36.728 14.872 36.864 14.856 36.96L14.136 40.944C15 40.896 15.784 40.688 16.488 40.32C17.208 39.952 17.776 39.44 18.192 38.784C18.624 38.128 18.84 37.384 18.84 36.552C18.84 35.544 18.496 34.752 17.808 34.176C17.12 33.6 16.112 33.312 14.784 33.312C13.216 33.312 11.84 33.704 10.656 34.488C9.488 35.256 8.576 36.408 7.92 37.944C7.264 39.464 6.936 41.32 6.936 43.512C6.936 44.536 7.04 45.416 7.248 46.152C7.456 46.888 7.712 47.44 8.016 47.808C8.32 48.176 8.608 48.36 8.88 48.36C9.088 48.36 9.256 48.256 9.384 48.048C9.528 47.84 9.64 47.504 9.72 47.04L10.368 43.44ZM27.7524 51.12C26.7604 51.12 25.9684 50.76 25.3764 50.04C24.7844 49.32 24.4884 48.376 24.4884 47.208C24.4884 45.928 24.7844 44.72 25.3764 43.584C25.9684 42.432 26.7524 41.512 27.7284 40.824C28.7204 40.12 29.7684 39.768 30.8724 39.768C31.2244 39.768 31.4564 39.84 31.5684 39.984C31.6964 40.112 31.8004 40.352 31.8804 40.704C32.2164 40.64 32.5684 40.608 32.9364 40.608C33.7204 40.608 34.1124 40.888 34.1124 41.448C34.1124 41.784 33.9924 42.584 33.7524 43.848C33.3844 45.688 33.2004 46.968 33.2004 47.688C33.2004 47.928 33.2564 48.12 33.3684 48.264C33.4964 48.408 33.6564 48.48 33.8484 48.48C34.1524 48.48 34.5204 48.288 34.9524 47.904C35.3844 47.504 35.9684 46.864 36.7044 45.984C36.8964 45.76 37.1124 45.648 37.3524 45.648C37.5604 45.648 37.7204 45.744 37.8324 45.936C37.9604 46.128 38.0244 46.392 38.0244 46.728C38.0244 47.368 37.8724 47.864 37.5684 48.216C36.9124 49.032 36.2164 49.72 35.4804 50.28C34.7444 50.84 34.0324 51.12 33.3444 51.12C32.8164 51.12 32.3284 50.944 31.8804 50.592C31.4484 50.224 31.1204 49.728 30.8964 49.104C30.0644 50.448 29.0164 51.12 27.7524 51.12ZM28.6164 48.696C28.9684 48.696 29.3044 48.488 29.6244 48.072C29.9444 47.656 30.1764 47.104 30.3204 46.416L31.2084 42C30.5364 42.016 29.9124 42.272 29.3364 42.768C28.7764 43.248 28.3284 43.888 27.9924 44.688C27.6564 45.488 27.4884 46.336 27.4884 47.232C27.4884 47.728 27.5844 48.096 27.7764 48.336C27.9844 48.576 28.2644 48.696 28.6164 48.696ZM48.1883 43.704C48.2363 43.688 48.3163 43.68 48.4283 43.68C48.6683 43.68 48.8523 43.76 48.9803 43.92C49.1083 44.08 49.1723 44.296 49.1723 44.568C49.1723 45.064 49.0763 45.456 48.8843 45.744C48.6923 46.016 48.4043 46.216 48.0203 46.344C47.2843 46.584 46.5003 46.704 45.6683 46.704C44.9643 46.704 44.3003 46.608 43.6763 46.416C43.2123 47.168 42.7003 47.944 42.1403 48.744C41.5003 49.656 40.9483 50.28 40.4843 50.616C40.0203 50.952 39.4923 51.12 38.9003 51.12C38.2443 51.12 37.7243 50.864 37.3403 50.352C36.9723 49.84 36.7403 49.032 36.6443 47.928C36.4523 45.688 36.3563 43.728 36.3563 42.048V41.208C36.3723 40.68 36.5163 40.312 36.7883 40.104C37.0603 39.896 37.4683 39.792 38.0123 39.792C38.4283 39.792 38.7323 39.888 38.9243 40.08C39.1323 40.256 39.2363 40.56 39.2363 40.992C39.2363 42.832 39.3483 45.224 39.5723 48.168C40.5323 46.744 41.2523 45.608 41.7323 44.76C41.4923 44.296 41.3723 43.744 41.3723 43.104C41.3723 42.56 41.4923 42.032 41.7323 41.52C41.9723 41.008 42.3003 40.592 42.7163 40.272C43.1323 39.952 43.6043 39.792 44.1323 39.792C44.5963 39.792 44.9723 39.96 45.2603 40.296C45.5483 40.616 45.6923 41.088 45.6923 41.712C45.6923 42.432 45.5003 43.256 45.1163 44.184C45.7243 44.152 46.5323 44.032 47.5403 43.824L48.1883 43.704ZM50.4015 38.232C49.7295 38.232 49.2255 38.08 48.8895 37.776C48.5535 37.456 48.3855 37.016 48.3855 36.456C48.3855 35.896 48.6015 35.432 49.0335 35.064C49.4815 34.68 50.0335 34.488 50.6895 34.488C51.2815 34.488 51.7615 34.632 52.1295 34.92C52.4975 35.208 52.6815 35.616 52.6815 36.144C52.6815 36.784 52.4735 37.296 52.0575 37.68C51.6415 38.048 51.0895 38.232 50.4015 38.232ZM48.0975 51.12C47.5855 51.12 47.2335 51.016 47.0415 50.808C46.8495 50.6 46.7535 50.272 46.7535 49.824C46.7535 49.696 46.7695 49.472 46.8015 49.152C47.0575 46.224 47.4815 43.56 48.0735 41.16C48.2015 40.664 48.4095 40.32 48.6975 40.128C49.0015 39.92 49.4815 39.816 50.1375 39.816C50.8255 39.816 51.1695 40.096 51.1695 40.656C51.1695 40.736 51.1535 40.888 51.1215 41.112C50.4015 44.536 49.9695 47.408 49.8255 49.728C49.7935 50.24 49.6415 50.6 49.3695 50.808C49.0975 51.016 48.6735 51.12 48.0975 51.12Z" fill="black"/>
<path d="M68.4814 51.12C66.5774 51.12 64.9214 50.776 63.5134 50.088C62.1054 49.384 61.0254 48.392 60.2734 47.112C59.5214 45.832 59.1454 44.344 59.1454 42.648C59.1454 40.296 59.5854 38.208 60.4654 36.384C61.3614 34.56 62.5694 33.152 64.0894 32.16C65.6094 31.152 67.2974 30.648 69.1534 30.648C70.8814 30.648 72.1934 31.096 73.0894 31.992C73.9854 32.872 74.4334 34.04 74.4334 35.496C74.4334 36.472 74.2574 37.256 73.9054 37.848C73.5694 38.44 73.0814 38.736 72.4414 38.736C71.9934 38.736 71.6414 38.632 71.3854 38.424C71.1294 38.216 71.0014 37.912 71.0014 37.512C71.0014 37.368 71.0334 37.104 71.0974 36.72C71.1934 36.24 71.2414 35.856 71.2414 35.568C71.2414 34.112 70.4654 33.384 68.9134 33.384C67.8574 33.384 66.8494 33.728 65.8894 34.416C64.9294 35.104 64.1534 36.12 63.5614 37.464C62.9694 38.792 62.6734 40.376 62.6734 42.216C62.6734 44.136 63.2094 45.624 64.2814 46.68C65.3534 47.72 66.9374 48.24 69.0334 48.24C70.0734 48.24 71.1214 48.112 72.1774 47.856C73.2494 47.584 74.4334 47.176 75.7294 46.632C75.9694 46.536 76.1694 46.488 76.3294 46.488C76.5854 46.488 76.7774 46.584 76.9054 46.776C77.0334 46.968 77.0974 47.216 77.0974 47.52C77.0974 48.496 76.5694 49.216 75.5134 49.68C74.3774 50.176 73.1934 50.544 71.9614 50.784C70.7454 51.008 69.5854 51.12 68.4814 51.12ZM88.5345 45.648C88.7425 45.648 88.9025 45.744 89.0145 45.936C89.1425 46.128 89.2065 46.392 89.2065 46.728C89.2065 47.368 89.0545 47.864 88.7505 48.216C88.0145 49.064 87.2545 49.76 86.4705 50.304C85.7025 50.848 84.8225 51.12 83.8305 51.12C83.0145 51.12 82.3985 50.888 81.9825 50.424C81.5665 49.944 81.3585 49.256 81.3585 48.36C81.3585 47.912 81.4705 47.112 81.6945 45.96C81.9025 44.952 82.0065 44.256 82.0065 43.872C82.0065 43.616 81.9185 43.488 81.7425 43.488C81.5345 43.488 81.2385 43.76 80.8545 44.304C80.4705 44.832 80.0865 45.536 79.7025 46.416C79.3185 47.296 79.0065 48.224 78.7665 49.2C78.4625 50.48 77.7105 51.12 76.5105 51.12C76.0305 51.12 75.7105 50.952 75.5505 50.616C75.4065 50.264 75.3345 49.64 75.3345 48.744C75.3345 48.232 75.3425 47.824 75.3585 47.52L75.3825 45.6C75.3825 43.136 75.6305 40.568 76.1265 37.896C76.6385 35.224 77.3825 32.984 78.3585 31.176C79.3505 29.352 80.5345 28.44 81.9105 28.44C82.6465 28.44 83.2385 28.76 83.6865 29.4C84.1505 30.024 84.3825 30.84 84.3825 31.848C84.3825 33.464 83.9105 35.144 82.9665 36.888C82.0225 38.616 80.4865 40.64 78.3585 42.96C78.3105 43.792 78.2865 44.648 78.2865 45.528C78.8145 44.168 79.3985 43.064 80.0385 42.216C80.6945 41.352 81.3345 40.736 81.9585 40.368C82.5985 40 83.1825 39.816 83.7105 39.816C84.7505 39.816 85.2705 40.336 85.2705 41.376C85.2705 42 85.0945 43.128 84.7425 44.76C84.4385 46.152 84.2865 47.072 84.2865 47.52C84.2865 48.16 84.5185 48.48 84.9825 48.48C85.3025 48.48 85.6785 48.288 86.1105 47.904C86.5585 47.504 87.1505 46.864 87.8865 45.984C88.0785 45.76 88.2945 45.648 88.5345 45.648ZM81.4065 30.816C81.1185 30.816 80.7985 31.232 80.4465 32.064C80.0945 32.88 79.7505 33.992 79.4145 35.4C79.0945 36.792 78.8305 38.312 78.6225 39.96C79.6145 38.792 80.4305 37.52 81.0705 36.144C81.7265 34.768 82.0545 33.52 82.0545 32.4C82.0545 31.888 81.9985 31.496 81.8865 31.224C81.7745 30.952 81.6145 30.816 81.4065 30.816ZM90.2134 51.12C89.2214 51.12 88.4294 50.76 87.8374 50.04C87.2454 49.32 86.9494 48.376 86.9494 47.208C86.9494 45.928 87.2454 44.72 87.8374 43.584C88.4294 42.432 89.2134 41.512 90.1894 40.824C91.1814 40.12 92.2294 39.768 93.3334 39.768C93.6854 39.768 93.9174 39.84 94.0294 39.984C94.1574 40.112 94.2614 40.352 94.3414 40.704C94.6774 40.64 95.0294 40.608 95.3974 40.608C96.1814 40.608 96.5734 40.888 96.5734 41.448C96.5734 41.784 96.4534 42.584 96.2134 43.848C95.8454 45.688 95.6614 46.968 95.6614 47.688C95.6614 47.928 95.7174 48.12 95.8294 48.264C95.9574 48.408 96.1174 48.48 96.3094 48.48C96.6134 48.48 96.9814 48.288 97.4134 47.904C97.8454 47.504 98.4294 46.864 99.1654 45.984C99.3574 45.76 99.5734 45.648 99.8134 45.648C100.021 45.648 100.181 45.744 100.293 45.936C100.421 46.128 100.485 46.392 100.485 46.728C100.485 47.368 100.333 47.864 100.029 48.216C99.3734 49.032 98.6774 49.72 97.9414 50.28C97.2054 50.84 96.4934 51.12 95.8054 51.12C95.2774 51.12 94.7894 50.944 94.3414 50.592C93.9094 50.224 93.5814 49.728 93.3574 49.104C92.5254 50.448 91.4774 51.12 90.2134 51.12ZM91.0774 48.696C91.4294 48.696 91.7654 48.488 92.0854 48.072C92.4054 47.656 92.6374 47.104 92.7814 46.416L93.6694 42C92.9974 42.016 92.3734 42.272 91.7974 42.768C91.2374 43.248 90.7894 43.888 90.4534 44.688C90.1174 45.488 89.9494 46.336 89.9494 47.232C89.9494 47.728 90.0454 48.096 90.2374 48.336C90.4454 48.576 90.7254 48.696 91.0774 48.696ZM100.983 51.12C100.263 51.12 99.6708 50.792 99.2068 50.136C98.7588 49.464 98.5348 48.632 98.5348 47.64C98.5348 46.44 98.6148 45.344 98.7748 44.352C98.9348 43.344 99.1988 42.28 99.5668 41.16C99.7268 40.68 99.9508 40.336 100.239 40.128C100.527 39.92 100.983 39.816 101.607 39.816C101.959 39.816 102.199 39.872 102.327 39.984C102.471 40.096 102.543 40.264 102.543 40.488C102.543 40.616 102.455 41.048 102.279 41.784C102.119 42.376 101.991 42.912 101.895 43.392C101.575 45.072 101.415 46.192 101.415 46.752C101.415 47.088 101.455 47.328 101.535 47.472C101.615 47.6 101.743 47.664 101.919 47.664C102.159 47.664 102.455 47.424 102.807 46.944C103.175 46.464 103.559 45.736 103.959 44.76C104.375 43.784 104.775 42.584 105.159 41.16C105.287 40.68 105.479 40.336 105.735 40.128C106.007 39.92 106.407 39.816 106.935 39.816C107.303 39.816 107.559 39.864 107.703 39.96C107.847 40.04 107.919 40.2 107.919 40.44C107.919 40.84 107.719 41.936 107.319 43.728C106.871 45.776 106.647 47.04 106.647 47.52C106.647 47.824 106.711 48.064 106.839 48.24C106.967 48.4 107.135 48.48 107.343 48.48C107.663 48.48 108.039 48.288 108.471 47.904C108.919 47.504 109.511 46.864 110.247 45.984C110.439 45.76 110.655 45.648 110.895 45.648C111.103 45.648 111.263 45.744 111.375 45.936C111.503 46.128 111.567 46.392 111.567 46.728C111.567 47.368 111.415 47.864 111.111 48.216C110.423 49.064 109.679 49.76 108.879 50.304C108.095 50.848 107.199 51.12 106.191 51.12C105.423 51.12 104.855 50.824 104.487 50.232C104.135 49.64 103.959 48.808 103.959 47.736C103.687 48.824 103.279 49.664 102.735 50.256C102.191 50.832 101.607 51.12 100.983 51.12ZM123.253 45.648C123.461 45.648 123.621 45.744 123.733 45.936C123.861 46.128 123.925 46.392 123.925 46.728C123.925 47.368 123.773 47.864 123.469 48.216C122.813 49.016 122.093 49.704 121.309 50.28C120.525 50.84 119.749 51.12 118.981 51.12C117.765 51.12 116.837 50.408 116.197 48.984C115.525 49.832 114.933 50.4 114.421 50.688C113.925 50.976 113.341 51.12 112.669 51.12C111.693 51.12 110.885 50.76 110.245 50.04C109.621 49.304 109.309 48.352 109.309 47.184C109.309 45.904 109.581 44.72 110.125 43.632C110.669 42.528 111.413 41.632 112.357 40.944C113.317 40.24 114.389 39.824 115.573 39.696C115.877 36.592 116.453 33.944 117.301 31.752C118.165 29.544 119.293 28.44 120.685 28.44C121.373 28.44 121.941 28.752 122.389 29.376C122.853 30 123.085 30.944 123.085 32.208C123.085 34 122.645 36.096 121.765 38.496C120.885 40.896 119.709 43.36 118.237 45.888C118.301 46.816 118.437 47.48 118.645 47.88C118.869 48.28 119.149 48.48 119.485 48.48C119.917 48.48 120.357 48.288 120.805 47.904C121.253 47.52 121.853 46.88 122.605 45.984C122.797 45.76 123.013 45.648 123.253 45.648ZM120.421 30.792C120.117 30.792 119.813 31.336 119.509 32.424C119.205 33.496 118.941 34.904 118.717 36.648C118.509 38.392 118.357 40.216 118.261 42.12C120.053 38.216 120.949 35.08 120.949 32.712C120.949 32.104 120.893 31.632 120.781 31.296C120.685 30.96 120.565 30.792 120.421 30.792ZM113.509 48.696C113.813 48.696 114.117 48.576 114.421 48.336C114.725 48.08 115.109 47.616 115.573 46.944C115.413 46.08 115.333 45.112 115.333 44.04C115.333 43.656 115.349 43.032 115.381 42.168C114.501 42.44 113.765 43.032 113.173 43.944C112.597 44.84 112.309 45.84 112.309 46.944C112.309 48.112 112.709 48.696 113.509 48.696ZM135.292 45.648C135.5 45.648 135.66 45.744 135.772 45.936C135.9 46.128 135.964 46.392 135.964 46.728C135.964 47.368 135.812 47.864 135.508 48.216C134.772 49.064 134.012 49.76 133.228 50.304C132.46 50.848 131.58 51.12 130.588 51.12C129.772 51.12 129.156 50.888 128.74 50.424C128.324 49.944 128.116 49.256 128.116 48.36C128.116 47.912 128.228 47.112 128.452 45.96C128.66 44.952 128.764 44.256 128.764 43.872C128.764 43.616 128.676 43.488 128.5 43.488C128.292 43.488 127.996 43.76 127.612 44.304C127.228 44.832 126.844 45.536 126.46 46.416C126.076 47.296 125.764 48.224 125.524 49.2C125.22 50.48 124.468 51.12 123.268 51.12C122.788 51.12 122.468 50.952 122.308 50.616C122.164 50.264 122.092 49.64 122.092 48.744C122.092 48.232 122.1 47.824 122.116 47.52L122.14 45.6C122.14 43.136 122.388 40.568 122.884 37.896C123.396 35.224 124.14 32.984 125.116 31.176C126.108 29.352 127.292 28.44 128.668 28.44C129.404 28.44 129.996 28.76 130.444 29.4C130.908 30.024 131.14 30.84 131.14 31.848C131.14 33.464 130.668 35.144 129.724 36.888C128.78 38.616 127.244 40.64 125.116 42.96C125.068 43.792 125.044 44.648 125.044 45.528C125.572 44.168 126.156 43.064 126.796 42.216C127.452 41.352 128.092 40.736 128.716 40.368C129.356 40 129.94 39.816 130.468 39.816C131.508 39.816 132.028 40.336 132.028 41.376C132.028 42 131.852 43.128 131.5 44.76C131.196 46.152 131.044 47.072 131.044 47.52C131.044 48.16 131.276 48.48 131.74 48.48C132.06 48.48 132.436 48.288 132.868 47.904C133.316 47.504 133.908 46.864 134.644 45.984C134.836 45.76 135.052 45.648 135.292 45.648ZM128.164 30.816C127.876 30.816 127.556 31.232 127.204 32.064C126.852 32.88 126.508 33.992 126.172 35.4C125.852 36.792 125.588 38.312 125.38 39.96C126.372 38.792 127.188 37.52 127.828 36.144C128.484 34.768 128.812 33.52 128.812 32.4C128.812 31.888 128.756 31.496 128.644 31.224C128.532 30.952 128.372 30.816 128.164 30.816ZM136.971 51.12C135.979 51.12 135.187 50.76 134.595 50.04C134.003 49.32 133.707 48.376 133.707 47.208C133.707 45.928 134.003 44.72 134.595 43.584C135.187 42.432 135.971 41.512 136.947 40.824C137.939 40.12 138.987 39.768 140.091 39.768C140.443 39.768 140.675 39.84 140.787 39.984C140.915 40.112 141.019 40.352 141.099 40.704C141.435 40.64 141.787 40.608 142.155 40.608C142.939 40.608 143.331 40.888 143.331 41.448C143.331 41.784 143.211 42.584 142.971 43.848C142.603 45.688 142.419 46.968 142.419 47.688C142.419 47.928 142.475 48.12 142.587 48.264C142.715 48.408 142.875 48.48 143.067 48.48C143.371 48.48 143.739 48.288 144.171 47.904C144.603 47.504 145.187 46.864 145.923 45.984C146.115 45.76 146.331 45.648 146.571 45.648C146.779 45.648 146.939 45.744 147.051 45.936C147.179 46.128 147.243 46.392 147.243 46.728C147.243 47.368 147.091 47.864 146.787 48.216C146.131 49.032 145.435 49.72 144.699 50.28C143.963 50.84 143.251 51.12 142.563 51.12C142.035 51.12 141.547 50.944 141.099 50.592C140.667 50.224 140.339 49.728 140.115 49.104C139.283 50.448 138.235 51.12 136.971 51.12ZM137.835 48.696C138.187 48.696 138.523 48.488 138.843 48.072C139.163 47.656 139.395 47.104 139.539 46.416L140.427 42C139.755 42.016 139.131 42.272 138.555 42.768C137.995 43.248 137.547 43.888 137.211 44.688C136.875 45.488 136.707 46.336 136.707 47.232C136.707 47.728 136.803 48.096 136.995 48.336C137.203 48.576 137.483 48.696 137.835 48.696ZM146.997 51.12C146.389 51.12 145.957 50.8 145.701 50.16C145.461 49.52 145.341 48.496 145.341 47.088C145.341 45.008 145.637 43.032 146.229 41.16C146.373 40.696 146.605 40.36 146.925 40.152C147.261 39.928 147.725 39.816 148.317 39.816C148.637 39.816 148.861 39.856 148.989 39.936C149.117 40.016 149.181 40.168 149.181 40.392C149.181 40.648 149.061 41.224 148.821 42.12C148.661 42.76 148.533 43.32 148.437 43.8C148.341 44.28 148.261 44.872 148.197 45.576C148.725 44.2 149.317 43.08 149.973 42.216C150.629 41.352 151.269 40.736 151.893 40.368C152.533 40 153.117 39.816 153.645 39.816C154.685 39.816 155.205 40.336 155.205 41.376C155.205 41.584 155.133 42.088 154.989 42.888C154.861 43.528 154.797 43.928 154.797 44.088C154.797 44.648 154.997 44.928 155.397 44.928C155.845 44.928 156.421 44.576 157.125 43.872C157.333 43.664 157.549 43.56 157.773 43.56C157.981 43.56 158.141 43.656 158.253 43.848C158.381 44.024 158.445 44.264 158.445 44.568C158.445 45.16 158.285 45.624 157.965 45.96C157.517 46.424 156.989 46.824 156.381 47.16C155.789 47.48 155.157 47.64 154.485 47.64C153.637 47.64 152.989 47.424 152.541 46.992C152.109 46.56 151.893 45.976 151.893 45.24C151.893 45 151.917 44.76 151.965 44.52C151.997 44.2 152.013 43.984 152.013 43.872C152.013 43.616 151.925 43.488 151.749 43.488C151.509 43.488 151.189 43.76 150.789 44.304C150.405 44.832 150.021 45.536 149.637 46.416C149.253 47.296 148.941 48.224 148.701 49.2C148.525 49.952 148.317 50.464 148.077 50.736C147.853 50.992 147.493 51.12 146.997 51.12ZM164.615 39.816C164.983 39.816 165.239 39.864 165.383 39.96C165.527 40.056 165.599 40.216 165.599 40.44C165.599 40.824 165.391 42.192 164.975 44.544C164.607 46.8 164.391 48.136 164.327 48.552C163.735 52.664 162.919 55.92 161.879 58.32C160.839 60.72 159.455 61.92 157.727 61.92C156.911 61.92 156.247 61.664 155.735 61.152C155.223 60.656 154.966 60 154.966 59.184C154.966 58.432 155.135 57.664 155.471 56.88C155.823 56.096 156.463 55.192 157.391 54.168C158.335 53.16 159.663 52 161.375 50.688L161.447 50.136C161.559 49.544 161.687 48.696 161.831 47.592C161.511 48.744 161.063 49.624 160.487 50.232C159.911 50.824 159.303 51.12 158.663 51.12C157.943 51.12 157.351 50.792 156.887 50.136C156.439 49.464 156.215 48.632 156.215 47.64C156.215 46.44 156.295 45.344 156.455 44.352C156.615 43.344 156.879 42.28 157.247 41.16C157.407 40.68 157.631 40.336 157.919 40.128C158.207 39.92 158.663 39.816 159.287 39.816C159.639 39.816 159.879 39.872 160.007 39.984C160.151 40.096 160.223 40.264 160.223 40.488C160.223 40.616 160.135 41.048 159.959 41.784C159.799 42.376 159.671 42.912 159.575 43.392C159.447 44.048 159.335 44.68 159.239 45.288C159.143 45.88 159.095 46.368 159.095 46.752C159.095 47.36 159.263 47.664 159.599 47.664C159.839 47.664 160.135 47.424 160.487 46.944C160.855 46.464 161.239 45.736 161.639 44.76C162.055 43.784 162.455 42.584 162.839 41.16C162.967 40.68 163.159 40.336 163.415 40.128C163.687 39.92 164.087 39.816 164.615 39.816ZM157.991 59.592C158.391 59.592 158.839 59.128 159.335 58.2C159.831 57.272 160.327 55.728 160.823 53.568C159.591 54.608 158.695 55.552 158.135 56.4C157.591 57.264 157.319 58.016 157.319 58.656C157.319 58.928 157.367 59.152 157.463 59.328C157.575 59.504 157.751 59.592 157.991 59.592Z" fill="url(#paint0_linear_8_912)"/>
</g>
<defs>
<filter id="filter0_d_8_912" x="-1" y="0" width="171" height="90" filterUnits="userSpaceOnUse" color-interpolation-filters="sRGB">
<feFlood flood-opacity="0" result="BackgroundImageFix"/>
<feColorMatrix in="SourceAlpha" type="matrix" values="0 0 0 0 0 0 0 0 0 0 0 0 0 0 0 0 0 0 127 0" result="hardAlpha"/>
<feOffset dy="4"/>
<feGaussianBlur stdDeviation="2"/>
<feComposite in2="hardAlpha" operator="out"/>
<feColorMatrix type="matrix" values="0 0 0 0 0 0 0 0 0 0 0 0 0 0 0 0 0 0 0.25 0"/>
<feBlend mode="normal" in2="BackgroundImageFix" result="effect1_dropShadow_8_912"/>
<feBlend mode="normal" in="SourceGraphic" in2="effect1_dropShadow_8_912" result="shape"/>
</filter>
<linearGradient id="paint0_linear_8_912" x1="84.5" y1="20" x2="84.5" y2="62" gradientUnits="userSpaceOnUse">
<stop stop-color="#FF9C1A"/>
<stop offset="1" stop-color="#ED250A"/>
</linearGradient>
</defs>
</svg>
