<svg width="71" height="62" viewBox="0 0 71 62" fill="none" xmlns="http://www.w3.org/2000/svg">
<rect x="0.675781" width="69.7733" height="61.6614" rx="8.26855" fill="#F2F7FC"/>
<path d="M43.9874 25.6053C43.3564 25.8845 42.6873 26.0678 42.0021 26.1494C42.724 25.7171 43.2642 25.037 43.5219 24.236C42.8439 24.6395 42.1005 24.9223 41.3266 25.0753C40.8062 24.5185 40.1164 24.1492 39.3644 24.0248C38.6125 23.9005 37.8405 24.0281 37.1686 24.3877C36.4966 24.7474 35.9623 25.319 35.6487 26.0136C35.3351 26.7083 35.2598 27.4871 35.4344 28.2289C34.0593 28.1601 32.7141 27.8029 31.486 27.1804C30.2579 26.5578 29.1745 25.684 28.3061 24.6156C27.9988 25.1435 27.8373 25.7436 27.8381 26.3544C27.8381 27.5534 28.4492 28.6126 29.3761 29.2327C28.8271 29.2154 28.2901 29.0671 27.81 28.8003V28.8424C27.81 29.6411 28.0862 30.4151 28.5918 31.0333C29.0974 31.6515 29.8013 32.0758 30.5841 32.2342C30.0745 32.3725 29.54 32.3928 29.0213 32.2937C29.2421 32.9812 29.6723 33.5824 30.2517 34.0131C30.8312 34.4438 31.5308 34.6825 32.2527 34.6958C31.5353 35.2592 30.7138 35.6757 29.8353 35.9215C28.9568 36.1672 28.0385 36.2373 27.1328 36.1279C28.7135 37.1444 30.5536 37.6841 32.433 37.6824C38.7948 37.6824 42.2725 32.4128 42.2725 27.8428C42.2725 27.6939 42.2692 27.5435 42.2626 27.3955C42.9393 26.9062 43.5234 26.2995 43.9874 25.6053Z" fill="#1DA1F2"/>
</svg>
